<svg width="1030" height="1030" viewBox="0 0 1030 1030" fill="none" xmlns="http://www.w3.org/2000/svg">
<path d="M40 42C40 40.8954 40.8954 40 42 40H988C989.105 40 990 40.8954 990 42V988C990 989.105 989.105 990 988 990H42C40.8954 990 40 989.105 40 988V42Z" fill="#111111"/>
<path d="M42 41H988V39H42V41ZM989 42V988H991V42H989ZM988 989H42V991H988V989ZM41 988V42H39V988H41ZM42 989C41.4477 989 41 988.552 41 988H39C39 989.657 40.3431 991 42 991V989ZM989 988C989 988.552 988.552 989 988 989V991C989.657 991 991 989.657 991 988H989ZM988 41C988.552 41 989 41.4477 989 42H991C991 40.3432 989.657 39 988 39V41ZM42 39C40.3432 39 39 40.3431 39 42H41C41 41.4477 41.4477 41 42 41V39Z" fill="white" fill-opacity="0.1"/>
<path d="M640 392C640 390.895 640.895 390 642 390H888C889.105 390 890 390.895 890 392V888C890 889.105 889.105 890 888 890H642C640.895 890 640 889.105 640 888V392Z" fill="#F7931A"/>
<path d="M140 642C140 640.895 140.895 640 142 640H638C639.105 640 640 640.895 640 642V888C640 889.105 639.105 890 638 890H142C140.895 890 140 889.105 140 888V642Z" fill="#F5F5F5"/>
<path d="M390 142C390 140.895 390.895 140 392 140H888C889.105 140 890 140.895 890 142V388C890 389.105 889.105 390 888 390H392C390.895 390 390 389.105 390 388V142Z" fill="#F5F5F5"/>
<path d="M140 142C140 140.895 140.895 140 142 140H388C389.105 140 390 140.895 390 142V638C390 639.105 389.105 640 388 640H142C140.895 640 140 639.105 140 638V142Z" fill="#F7931A"/>
</svg>
